<svg width="144" height="17" viewBox="0 0 144 17" fill="none" xmlns="http://www.w3.org/2000/svg">
<g id="Escuadra">
<path id="E" d="M0 0.558472H12.6574V3.81617H4.18898V6.74558H11.83V9.98434L4.18898 10.0096V12.9579H12.8837V16.222H0V0.558472Z" fill="#171717"/>
<path id="S" d="M25.4765 4.06241C24.5068 3.74675 23.6923 3.59523 23.0394 3.59523C22.5222 3.59523 22.1149 3.68993 21.8176 3.87301C21.5202 4.0561 21.3715 4.33389 21.3715 4.68744C21.3715 5.04099 21.5008 5.31878 21.7594 5.54606C22.018 5.77334 22.3412 5.96274 22.7226 6.10163C23.104 6.24053 23.6664 6.42362 24.4163 6.6509C25.5282 6.96657 26.4461 7.27592 27.1766 7.59159C27.9006 7.90726 28.5212 8.38076 29.0384 9.03104C29.5555 9.68132 29.8141 10.5273 29.8141 11.569C29.8141 12.6107 29.5297 13.5009 28.9673 14.2396C28.4049 14.9782 27.6291 15.5338 26.6465 15.9063C25.6639 16.2788 24.5714 16.4619 23.3626 16.4619C22.0374 16.4619 20.7122 16.2346 19.3934 15.78C18.0747 15.3255 16.9369 14.7004 15.9737 13.9113L17.5963 10.7167C18.4043 11.4175 19.3611 11.992 20.4665 12.4403C21.5719 12.8885 22.5545 13.1095 23.4078 13.1095C24.0349 13.1095 24.5262 12.9958 24.8817 12.7749C25.2437 12.5539 25.4183 12.2256 25.4183 11.79C25.4183 11.4301 25.2825 11.1334 25.0175 10.8998C24.7524 10.6599 24.4163 10.4705 24.009 10.3316C23.6082 10.1927 23.0329 10.0222 22.3024 9.82652C21.2035 9.5298 20.2984 9.22675 19.5809 8.92371C18.8633 8.62067 18.2492 8.15348 17.7385 7.53477C17.2278 6.91606 16.9692 6.09532 16.9692 5.06624C16.9692 4.09398 17.2343 3.24799 17.7579 2.51564C18.2815 1.78329 19.0314 1.2214 20.0011 0.829967C20.9707 0.438538 22.0955 0.236511 23.3755 0.236511C24.5326 0.236511 25.6769 0.400658 26.8081 0.716327C27.933 1.03831 28.9285 1.46762 29.7818 2.00426L28.2045 5.26827C27.3512 4.77582 26.4397 4.37808 25.47 4.06241" fill="#171717"/>
<path id="C" d="M43.4024 4.34019C42.6849 3.96139 41.9738 3.77198 41.2756 3.77198C40.4676 3.77198 39.7306 3.9677 39.0648 4.36544C38.3989 4.76318 37.8818 5.30613 37.4939 6.0006C37.1125 6.69507 36.925 7.46531 36.925 8.3113C36.925 9.15729 37.119 9.93384 37.4939 10.622C37.8753 11.3165 38.3989 11.8594 39.0648 12.2508C39.7306 12.6486 40.4611 12.8443 41.2756 12.8443C41.9285 12.8443 42.6202 12.6802 43.3313 12.3519C44.0489 12.0236 44.6889 11.5816 45.2513 11.0134L47.7013 13.583C46.8351 14.4795 45.8007 15.1866 44.5983 15.7169C43.4024 16.2472 42.213 16.5124 41.0429 16.5124C39.4591 16.5124 38.024 16.1525 36.744 15.4391C35.4641 14.7257 34.4556 13.7471 33.7251 12.5097C32.9946 11.2723 32.6262 9.88964 32.6262 8.35549C32.6262 6.82134 33.0011 5.46397 33.7445 4.24549C34.4879 3.02701 35.5158 2.06106 36.8216 1.36028C38.1274 0.659491 39.5884 0.312256 41.2045 0.312256C42.394 0.312256 43.5705 0.552163 44.7276 1.03829C45.8848 1.52442 46.8674 2.18101 47.6819 3.01438L45.2577 5.87434C44.7406 5.23037 44.12 4.7253 43.4024 4.34019Z" fill="#171717"/>
<path id="U" d="M56.0146 12.1309C56.6093 12.7243 57.3657 13.0274 58.2772 13.0274C59.1887 13.0274 59.9062 12.7307 60.4622 12.1435C61.0181 11.5564 61.2961 10.7609 61.2961 9.76337V0.558472H65.4851V9.76337C65.4851 11.1207 65.1941 12.3077 64.6059 13.3241C64.0176 14.3406 63.1772 15.1297 62.0912 15.679C60.9987 16.2283 59.7252 16.5061 58.2578 16.5061C56.7903 16.5061 55.5104 16.2283 54.4049 15.679C53.2995 15.1297 52.4462 14.3406 51.845 13.3241C51.2438 12.3013 50.94 11.1144 50.94 9.76337V0.558472H55.129V9.76337C55.129 10.7419 55.4263 11.5374 56.0211 12.1309" fill="#171717"/>
<path id="A" d="M81.8466 16.222L80.7476 13.4504H73.8177L72.6994 16.222H68.394L75.2787 0.558472H79.5776L86.3071 16.222H81.8466ZM75.0718 10.3189H79.5129L77.315 4.73161L75.0718 10.3189Z" fill="#171717"/>
<path id="D" d="M100.82 1.53704C102.113 2.19363 103.115 3.11539 103.832 4.29599C104.55 5.4829 104.905 6.84028 104.905 8.37443C104.905 9.90858 104.543 11.2723 103.819 12.4655C103.095 13.6587 102.074 14.5805 100.755 15.2371C99.4364 15.8937 97.9237 16.222 96.2106 16.222H89.4617V0.558472H96.3722C98.0465 0.558472 99.5334 0.886768 100.82 1.54336M98.6348 12.3582C99.2619 11.9857 99.7467 11.4554 100.102 10.7735C100.451 10.0853 100.626 9.30249 100.626 8.42493C100.626 7.54737 100.438 6.73926 100.063 6.05742C99.6885 5.37557 99.1714 4.83894 98.5185 4.46014C97.8591 4.08133 97.1157 3.89193 96.2753 3.89193H93.6442V12.9201H96.4821C97.2902 12.9201 98.0078 12.7307 98.6348 12.3582Z" fill="#171717"/>
<path id="R" d="M118.339 16.222L116.005 11.8847H112.895V16.222H108.706V0.558472H115.914C118.035 0.558472 119.677 1.03829 120.847 1.99792C122.01 2.95755 122.599 4.30862 122.599 6.05111C122.599 7.23171 122.353 8.24185 121.868 9.10046C121.377 9.95908 120.672 10.6283 119.741 11.1018L123.083 16.222H118.345H118.339ZM112.895 8.62696H115.94C116.794 8.62696 117.453 8.41862 117.918 8.00194C118.384 7.58526 118.617 6.97917 118.617 6.19C118.617 5.40083 118.384 4.84525 117.918 4.43488C117.453 4.02451 116.794 3.82249 115.94 3.82249H112.895V8.62696Z" fill="#171717"/>
<path id="A_2" d="M138.766 16.222L137.667 13.4504H130.737L129.619 16.222H125.32L132.205 0.558472H136.504L143.233 16.222H138.773H138.766ZM131.991 10.3189H136.432L134.235 4.73161L131.991 10.3189Z" fill="#171717"/>
</g>
</svg>
