<svg width="113" height="17" viewBox="0 0 113 17" fill="none" xmlns="http://www.w3.org/2000/svg">
<g id="Estudio">
<path id="E" d="M0.933533 0.477173H13.494V3.70962H5.09019V6.62009H12.673V9.83359L5.09019 9.85885V12.7882H13.7202V16.0207H0.933533V0.477173Z" fill="#171717"/>
<path id="S" d="M26.2225 3.95582C25.2593 3.64646 24.4577 3.48863 23.8048 3.48863C23.2877 3.48863 22.8869 3.58333 22.5895 3.76642C22.2921 3.9495 22.1435 4.22098 22.1435 4.57453C22.1435 4.92808 22.2728 5.19955 22.5313 5.42684C22.7899 5.65412 23.1067 5.84352 23.4881 5.98241C23.8695 6.12131 24.4254 6.30439 25.1688 6.52536C26.2743 6.83472 27.1857 7.14407 27.9098 7.45974C28.6273 7.76909 29.2479 8.24891 29.7586 8.89288C30.2693 9.53684 30.5279 10.3765 30.5279 11.4119C30.5279 12.4473 30.2499 13.3312 29.6875 14.0635C29.1251 14.7959 28.3623 15.3451 27.3797 15.7176C26.4035 16.0901 25.3175 16.2732 24.1216 16.2732C22.8028 16.2732 21.4906 16.0459 20.1783 15.5977C18.866 15.1494 17.7347 14.5307 16.7844 13.7479L18.3941 10.5785C19.1957 11.273 20.1459 11.8412 21.2449 12.2895C22.3439 12.7314 23.3135 12.9524 24.1604 12.9524C24.781 12.9524 25.2723 12.8387 25.6278 12.6178C25.9834 12.3968 26.1644 12.0685 26.1644 11.6392C26.1644 11.2856 26.0351 10.9889 25.77 10.7553C25.505 10.5217 25.1688 10.3323 24.7745 10.1871C24.3737 10.0482 23.8113 9.87776 23.0808 9.68836C21.9883 9.39163 21.0898 9.0949 20.3787 8.79186C19.6676 8.48882 19.0599 8.02794 18.5492 7.41554C18.045 6.80315 17.7864 5.98241 17.7864 4.96596C17.7864 4.00633 18.0515 3.16033 18.5686 2.44061C19.0922 1.71457 19.8356 1.15899 20.7924 0.767564C21.7556 0.376135 22.8675 0.18042 24.141 0.18042C25.2917 0.18042 26.4294 0.338256 27.5478 0.660238C28.6661 0.975906 29.6552 1.40521 30.502 1.93554L28.9376 5.1743C28.0908 4.68817 27.1857 4.29043 26.2225 3.97476" fill="#171717"/>
<path id="T" d="M32.9585 0.477173H46.605V3.82326H41.8407V16.0207H37.684V3.82326H32.9585V0.477173Z" fill="#171717"/>
<path id="U" d="M54.7631 11.9612C55.3514 12.5547 56.1013 12.8514 57.0128 12.8514C57.9243 12.8514 58.6289 12.561 59.1784 11.9738C59.7279 11.393 60.0058 10.6038 60.0058 9.61262V0.477173H64.1625V9.61262C64.1625 10.9574 63.8716 12.138 63.2898 13.1481C62.708 14.1583 61.8741 14.9411 60.788 15.4904C59.702 16.0396 58.435 16.3111 56.9805 16.3111C55.526 16.3111 54.2525 16.0396 53.1535 15.4904C52.0545 14.9411 51.2077 14.1646 50.6065 13.1481C50.0053 12.1317 49.7079 10.9574 49.7079 9.61262V0.477173H53.8646V9.61262C53.8646 10.5912 54.162 11.3741 54.7502 11.9612" fill="#171717"/>
<path id="D" d="M79.981 1.4494C81.261 2.09968 82.2565 3.01511 82.9676 4.1894C83.6787 5.36369 84.0343 6.71475 84.0343 8.23628C84.0343 9.7578 83.6723 11.1152 82.9547 12.2958C82.2371 13.4764 81.2222 14.3981 79.9099 15.0484C78.5977 15.6987 77.0979 16.0207 75.3977 16.0207H68.7006V0.470825H75.5594C77.2272 0.470825 78.6946 0.799121 79.9746 1.44309M77.809 12.1758C78.4296 11.8096 78.9144 11.2793 79.2635 10.6038C79.6126 9.92195 79.7871 9.1454 79.7871 8.27415C79.7871 7.40291 79.5996 6.60111 79.2312 5.91927C78.8627 5.23742 78.352 4.71341 77.6991 4.33461C77.0462 3.95581 76.3028 3.77272 75.4753 3.77272H72.8637V12.7314H75.6822C76.4838 12.7314 77.1949 12.5483 77.8154 12.1758" fill="#171717"/>
<path id="I" d="M91.9662 0.477173H87.8096V16.027H91.9662V0.477173Z" fill="#171717"/>
<path id="O" d="M108.741 1.27264C110.054 1.96711 111.082 2.92043 111.831 4.13259C112.581 5.34476 112.956 6.70845 112.956 8.21103C112.956 9.71361 112.581 11.1089 111.831 12.34C111.082 13.5648 110.054 14.537 108.741 15.2441C107.429 15.9512 105.968 16.3111 104.346 16.3111C102.723 16.3111 101.262 15.9575 99.9497 15.2568C98.6374 14.556 97.6096 13.5837 96.8597 12.3526C96.1098 11.1215 95.7349 9.73887 95.7349 8.21735C95.7349 6.69582 96.1098 5.35108 96.8597 4.13891C97.6096 2.92674 98.6374 1.97342 99.9497 1.27895C101.262 0.58448 102.723 0.237244 104.346 0.237244C105.968 0.237244 107.429 0.58448 108.741 1.27895M102.199 4.27149C101.527 4.66923 100.99 5.2248 100.596 5.92559C100.202 6.62637 100.008 7.40292 100.008 8.2426C100.008 9.08228 100.208 9.88408 100.609 10.5849C101.01 11.2856 101.546 11.8412 102.212 12.2516C102.878 12.6556 103.602 12.864 104.391 12.864C105.179 12.864 105.903 12.662 106.556 12.2516C107.216 11.8475 107.733 11.292 108.114 10.5849C108.496 9.88408 108.683 9.10122 108.683 8.2426C108.683 7.38398 108.496 6.62637 108.114 5.92559C107.733 5.2248 107.216 4.67554 106.556 4.27149C105.897 3.87375 105.173 3.67172 104.391 3.67172C103.609 3.67172 102.872 3.87375 102.199 4.27149Z" fill="#171717"/>
</g>
</svg>
