<svg width="57" height="56" viewBox="0 0 57 56" fill="none" xmlns="http://www.w3.org/2000/svg">
<g id="Isotipo">
<path id="Iso/Lines" d="M50.5263 20.771C51.3537 18.9401 52.4397 17.2418 53.7391 15.7077C53.2349 14.6723 52.6595 13.6811 52.0325 12.7214C50.0931 14.7796 48.5158 17.1408 47.3845 19.7293L45.6327 19.1485L45.8395 18.5361C46.8415 15.6067 48.4641 12.955 50.5974 10.7201C49.9186 9.86149 49.1946 9.04706 48.4253 8.27052C45.8525 10.8906 43.9067 14.0346 42.7107 17.5133L42.5039 18.1068L21.7465 11.2062L25.5799 0C24.3322 0.107327 23.1105 0.290415 21.9145 0.549263L18.6306 10.1645L9.10197 6.99522C8.19694 7.7907 7.34363 8.64301 6.5485 9.55213L17.5898 13.2202L14.7002 21.6738L1.74541 17.2671C1.33814 18.2583 0.982599 19.2747 0.691698 20.3227L13.6594 24.7358L10.1234 35.0897L0 31.7121C0.187469 32.9684 0.471906 34.1932 0.827452 35.3928L9.08257 38.1454L6.52265 45.652C7.3307 46.5737 8.19048 47.4387 9.1149 48.2468L12.2049 39.1808L20.46 41.9334L16.465 52.9187C17.4605 53.3543 18.4884 53.7457 19.5485 54.074L23.5888 42.9814L32.9429 46.1002L29.7947 55.3051C31.0294 55.2357 32.2383 55.0842 33.4213 54.8632L36.0653 47.142L37.7396 47.6975L35.4382 54.415C36.7893 54.0614 38.108 53.6132 39.3686 53.0828L40.8554 48.7392L44.7988 50.0524C45.8395 49.3138 46.8286 48.5056 47.753 47.6344L41.9027 45.6836L49.395 23.7825L56.4606 26.1311C56.396 24.9252 56.2473 23.7446 56.0275 22.5829L50.5392 20.7584L50.5263 20.771ZM13.2457 36.1314L20.7121 14.2556L32.1413 18.0562L24.4357 39.8626L13.2457 36.1314ZM33.9772 43.0509L27.558 40.9107L35.2637 19.098L41.4696 21.1624L33.9772 43.0509ZM38.7674 44.6482L37.0931 44.0926L44.5854 22.1978L46.2597 22.7534L38.7674 44.6482Z" fill="#171717"/>
<path id="Iso/Circle" d="M26.7435 27.1159C26.7435 29.3004 24.9334 31.0681 22.6967 31.0681C20.46 31.0681 18.65 29.3004 18.65 27.1159C18.65 24.9315 20.46 23.1638 22.6967 23.1638C24.9334 23.1638 26.7435 24.9315 26.7435 27.1159Z" fill="#171717"/>
</g>
</svg>
