<svg width="87" height="17" viewBox="0 0 87 17" fill="none" xmlns="http://www.w3.org/2000/svg">
<g id="Falsa">
<path id="F" d="M0 0.614502H11.9916L11.9657 3.87852H4.18898V7.3635H11.371V10.6275H4.18898V16.2843H0V0.614502Z" fill="#171717"/>
<path id="A" d="M28.5342 16.2843L27.4352 13.5128H20.5053L19.3869 16.2843H15.0816L21.9663 0.62085H26.2651L32.9946 16.2843H28.5342ZM21.7594 10.3813H26.2005L24.0026 4.79399L21.7594 10.3813Z" fill="#171717"/>
<path id="L" d="M37.1384 0.614502H41.3209V12.793H48.1215V16.2843H37.1384V0.614502Z" fill="#171717"/>
<path id="S" d="M60.7918 4.12477C59.8222 3.8091 59.0076 3.65758 58.3547 3.65758C57.8376 3.65758 57.4303 3.75228 57.1329 3.93537C56.8356 4.11845 56.6869 4.39624 56.6869 4.74979C56.6869 5.10334 56.8162 5.38113 57.0748 5.60841C57.3333 5.83569 57.6566 6.02509 58.038 6.16399C58.4194 6.30288 58.9818 6.48597 59.7317 6.71325C60.8435 7.02892 61.7615 7.33827 62.492 7.65394C63.216 7.9633 63.8366 8.44311 64.3538 9.09339C64.8709 9.74367 65.1295 10.5897 65.1295 11.6314C65.1295 12.6731 64.8451 13.5633 64.2826 14.3019C63.7202 15.0406 62.9445 15.5962 61.9619 15.9687C60.9793 16.3411 59.8803 16.5242 58.6779 16.5242C57.3527 16.5242 56.0275 16.2969 54.7088 15.8424C53.39 15.3878 52.2458 14.7628 51.2891 13.9736L52.9116 10.7791C53.7197 11.4798 54.6764 12.0544 55.7819 12.5026C56.8873 12.9509 57.8699 13.1718 58.7232 13.1718C59.3503 13.1718 59.8415 13.0645 60.1971 12.8372C60.5526 12.6163 60.7336 12.288 60.7336 11.8523C60.7336 11.4925 60.5979 11.1957 60.3329 10.9621C60.0678 10.7222 59.7317 10.5328 59.3244 10.3939C58.9171 10.2551 58.3483 10.0846 57.6178 9.88888C56.5188 9.59215 55.6138 9.28911 54.8962 8.98606C54.1787 8.68302 53.5646 8.21583 53.0539 7.59712C52.5432 6.97841 52.2846 6.15767 52.2846 5.12859C52.2846 4.16265 52.5496 3.31034 53.0733 2.5843C53.6033 1.85195 54.3468 1.29006 55.3164 0.898633C56.2861 0.507204 57.4109 0.305176 58.6909 0.305176C59.848 0.305176 60.9922 0.469324 62.1235 0.784992C63.2483 1.10697 64.2439 1.53628 65.0972 2.07292L63.5198 5.33693C62.6665 4.84449 61.755 4.44675 60.7854 4.13108" fill="#171717"/>
<path id="A_2" d="M81.8466 16.2843L80.7476 13.5128H73.8177L72.6994 16.2843H68.394L75.2787 0.62085H79.5776L86.3071 16.2843H81.8466ZM75.0718 10.3813H79.5129L77.315 4.79399L75.0718 10.3813Z" fill="#171717"/>
</g>
</svg>
