<?xml version="1.0" encoding="utf-8"?>
<!-- Generator: Adobe Illustrator 17.0.0, SVG Export Plug-In . SVG Version: 6.00 Build 0)  -->
<!DOCTYPE svg PUBLIC "-//W3C//DTD SVG 1.1//EN" "http://www.w3.org/Graphics/SVG/1.1/DTD/svg11.dtd">
<svg version="1.1" id="Layer_1" xmlns="http://www.w3.org/2000/svg" xmlns:xlink="http://www.w3.org/1999/xlink" x="0px" y="0px"
	 width="232px" height="67px" viewBox="0 0 232 67" enable-background="new 0 0 232 67" xml:space="preserve">
<path fill="#FFFFFF" d="M119.47,50.477h12.56v3.232h-8.404v2.91h7.583v3.214l-7.583,0.025v2.929h8.631v3.232H119.47V50.477z"/>
<path fill="#FFFFFF" d="M144.759,53.956c-0.963-0.309-1.765-0.467-2.418-0.467c-0.517,0-0.918,0.095-1.215,0.278
	c-0.298,0.183-0.446,0.455-0.446,0.808c0,0.354,0.129,0.625,0.388,0.852c0.258,0.227,0.575,0.417,0.956,0.556
	c0.382,0.139,0.938,0.322,1.681,0.543c1.106,0.309,2.017,0.619,2.741,0.934c0.718,0.309,1.338,0.789,1.849,1.433
	c0.511,0.644,0.769,1.484,0.769,2.519s-0.278,1.919-0.84,2.652c-0.563,0.732-1.325,1.282-2.308,1.654
	c-0.976,0.373-2.062,0.556-3.258,0.556c-1.319,0-2.631-0.227-3.943-0.675c-1.313-0.448-2.444-1.067-3.394-1.85l1.609-3.169
	c0.802,0.694,1.752,1.263,2.851,1.711c1.099,0.442,2.069,0.663,2.916,0.663c0.62,0,1.112-0.114,1.467-0.335
	c0.356-0.221,0.537-0.549,0.537-0.979c0-0.354-0.13-0.65-0.395-0.884c-0.265-0.234-0.601-0.423-0.995-0.568
	c-0.401-0.139-0.963-0.309-1.694-0.499c-1.092-0.297-1.991-0.594-2.702-0.896c-0.711-0.303-1.319-0.764-1.83-1.376
	c-0.504-0.612-0.762-1.433-0.762-2.45c0-0.96,0.265-1.806,0.782-2.525c0.523-0.726,1.267-1.282,2.224-1.673
	c0.963-0.392,2.075-0.587,3.348-0.587c1.151,0,2.289,0.158,3.407,0.48c1.118,0.316,2.107,0.745,2.954,1.275l-1.564,3.239
	c-0.847-0.486-1.752-0.884-2.715-1.2"/>
<path fill="#FFFFFF" d="M151.495,50.477h13.646v3.346h-4.764v12.197h-4.157V53.823h-4.725V50.477z"/>
<path fill="#FFFFFF" d="M173.299,61.961c0.589,0.593,1.338,0.89,2.25,0.89c0.911,0,1.616-0.29,2.166-0.878
	c0.549-0.581,0.827-1.37,0.827-2.361v-9.135h4.157v9.135c0,1.345-0.291,2.525-0.873,3.536c-0.582,1.01-1.416,1.793-2.502,2.342
	c-1.086,0.549-2.353,0.821-3.807,0.821c-1.455,0-2.728-0.271-3.827-0.821c-1.099-0.549-1.946-1.326-2.547-2.342
	c-0.602-1.016-0.899-2.191-0.899-3.536v-9.135h4.157v9.135c0,0.979,0.297,1.762,0.885,2.349"/>
<path fill="#FFFFFF" d="M198.517,51.449c1.28,0.65,2.276,1.566,2.987,2.74s1.067,2.525,1.067,4.047s-0.362,2.879-1.08,4.059
	s-1.733,2.102-3.045,2.753s-2.812,0.972-4.512,0.972h-6.697v-15.55h6.859c1.667,0,3.135,0.328,4.415,0.972 M196.345,62.176
	c0.621-0.366,1.106-0.896,1.455-1.572c0.349-0.682,0.523-1.458,0.523-2.33c0-0.871-0.187-1.673-0.556-2.355
	c-0.368-0.682-0.879-1.206-1.532-1.585c-0.653-0.379-1.396-0.562-2.223-0.562H191.4v8.959h2.818c0.802,0,1.513-0.183,2.134-0.556"/>
<path fill="#FFFFFF" d="M210.502,50.477h-4.156v15.55h4.156V50.477z"/>
<path fill="#FFFFFF" d="M227.278,51.273c1.312,0.694,2.34,1.648,3.09,2.86s1.125,2.576,1.125,4.078c0,1.503-0.375,2.898-1.125,4.129
	c-0.75,1.225-1.778,2.197-3.09,2.904c-1.313,0.707-2.774,1.067-4.396,1.067c-1.623,0-3.084-0.354-4.396-1.054
	c-1.312-0.701-2.34-1.673-3.09-2.904c-0.75-1.231-1.125-2.614-1.125-4.135c0-1.521,0.375-2.866,1.125-4.078s1.778-2.166,3.09-2.86
	c1.312-0.694,2.773-1.042,4.396-1.042c1.622,0,3.083,0.347,4.396,1.042 M220.736,54.271c-0.673,0.398-1.209,0.953-1.603,1.654
	c-0.395,0.701-0.589,1.477-0.589,2.317s0.201,1.642,0.601,2.342c0.401,0.701,0.938,1.256,1.604,1.667
	c0.665,0.404,1.39,0.612,2.178,0.612c0.789,0,1.513-0.202,2.166-0.612c0.659-0.404,1.176-0.96,1.558-1.667
	c0.381-0.701,0.569-1.484,0.569-2.342s-0.188-1.616-0.569-2.317c-0.382-0.701-0.899-1.25-1.558-1.654
	c-0.66-0.398-1.384-0.6-2.166-0.6S221.408,53.874,220.736,54.271z"/>
<path fill="#FFFFFF" d="M68.536,30.559h12.657v3.258h-8.469v2.929h7.641v3.239l-7.641,0.025v2.948h8.695v3.264H68.536V30.559z"/>
<path fill="#FFFFFF" d="M94.013,34.062c-0.97-0.316-1.784-0.467-2.437-0.467c-0.517,0-0.924,0.095-1.222,0.278
	c-0.297,0.183-0.446,0.461-0.446,0.814c0,0.354,0.129,0.631,0.388,0.859c0.259,0.227,0.582,0.417,0.963,0.556
	c0.381,0.139,0.944,0.322,1.694,0.549c1.112,0.316,2.03,0.625,2.76,0.941c0.724,0.316,1.345,0.789,1.862,1.439
	c0.517,0.65,0.776,1.496,0.776,2.538s-0.285,1.932-0.847,2.671c-0.562,0.739-1.338,1.294-2.321,1.667s-2.075,0.556-3.284,0.556
	c-1.325,0-2.65-0.227-3.969-0.682c-1.319-0.454-2.457-1.08-3.42-1.869l1.623-3.195c0.808,0.701,1.765,1.275,2.87,1.724
	c1.105,0.448,2.088,0.669,2.941,0.669c0.627,0,1.118-0.114,1.474-0.335c0.362-0.221,0.536-0.549,0.536-0.985
	c0-0.36-0.136-0.657-0.401-0.89c-0.265-0.24-0.601-0.429-1.008-0.568c-0.401-0.139-0.976-0.309-1.707-0.505
	c-1.099-0.297-2.004-0.6-2.722-0.903c-0.718-0.303-1.332-0.77-1.842-1.389c-0.511-0.619-0.769-1.44-0.769-2.469
	c0-0.972,0.265-1.818,0.789-2.551c0.524-0.732,1.273-1.294,2.243-1.686c0.97-0.392,2.094-0.594,3.374-0.594
	c1.157,0,2.301,0.164,3.433,0.48c1.125,0.322,2.12,0.751,2.974,1.288l-1.577,3.264c-0.853-0.493-1.765-0.89-2.734-1.206"/>
<path fill="#FFFFFF" d="M111.939,34.34c-0.718-0.379-1.429-0.568-2.127-0.568c-0.808,0-1.545,0.196-2.211,0.593
	c-0.666,0.398-1.183,0.941-1.571,1.635c-0.381,0.694-0.569,1.465-0.569,2.311c0,0.846,0.194,1.623,0.569,2.311
	c0.382,0.694,0.905,1.237,1.571,1.629c0.666,0.398,1.396,0.593,2.211,0.593c0.653,0,1.344-0.164,2.056-0.492
	c0.717-0.328,1.357-0.77,1.92-1.338l2.45,2.57c-0.867,0.896-1.901,1.604-3.103,2.134c-1.196,0.53-2.386,0.796-3.556,0.796
	c-1.584,0-3.019-0.36-4.299-1.073c-1.28-0.713-2.288-1.692-3.019-2.929c-0.73-1.237-1.099-2.62-1.099-4.154
	c0-1.534,0.375-2.891,1.119-4.11c0.743-1.218,1.771-2.184,3.077-2.885s2.767-1.048,4.383-1.048c1.189,0,2.366,0.24,3.523,0.726
	c1.157,0.486,2.14,1.143,2.954,1.976l-2.424,2.86C113.277,35.23,112.656,34.725,111.939,34.34z"/>
<path fill="#FFFFFF" d="M124.551,42.131c0.595,0.593,1.351,0.896,2.262,0.896c0.912,0,1.629-0.297,2.185-0.884
	c0.556-0.587,0.834-1.383,0.834-2.38v-9.205h4.189v9.205c0,1.357-0.291,2.544-0.879,3.561c-0.588,1.016-1.429,1.806-2.515,2.355
	c-1.092,0.549-2.366,0.827-3.833,0.827c-1.467,0-2.747-0.278-3.853-0.827c-1.105-0.549-1.959-1.338-2.56-2.355
	c-0.601-1.023-0.905-2.21-0.905-3.561v-9.205h4.189v9.205c0,0.979,0.298,1.774,0.892,2.368"/>
<path fill="#FFFFFF" d="M150.383,46.222l-1.099-2.772h-6.93l-1.118,2.772h-4.306l6.885-15.663h4.299l6.729,15.663H150.383z
	 M143.608,40.319h4.441l-2.198-5.587L143.608,40.319z"/>
<path fill="#FFFFFF" d="M169.356,31.537c1.293,0.657,2.295,1.578,3.013,2.759c0.717,1.187,1.073,2.544,1.073,4.078
	c0,1.534-0.362,2.898-1.086,4.091s-1.746,2.115-3.065,2.772c-1.318,0.657-2.831,0.985-4.544,0.985h-6.749V30.559h6.911
	c1.674,0,3.161,0.328,4.447,0.985 M167.171,42.358c0.627-0.373,1.112-0.903,1.468-1.585c0.349-0.688,0.523-1.471,0.523-2.349
	c0-0.877-0.187-1.686-0.562-2.368c-0.375-0.682-0.892-1.218-1.545-1.597c-0.66-0.379-1.403-0.568-2.243-0.568h-2.631v9.028h2.837
	C165.827,42.92,166.544,42.731,167.171,42.358z"/>
<path fill="#FFFFFF" d="M186.875,46.222l-2.334-4.337h-3.109v4.337h-4.189V30.559h7.208c2.12,0,3.762,0.48,4.932,1.439
	c1.164,0.96,1.752,2.311,1.752,4.053c0,1.181-0.246,2.191-0.731,3.049c-0.491,0.859-1.196,1.528-2.126,2.001l3.342,5.12h-4.739
	H186.875z M181.432,38.627h3.044c0.854,0,1.513-0.208,1.979-0.625c0.465-0.417,0.698-1.023,0.698-1.812s-0.233-1.345-0.698-1.755
	c-0.466-0.41-1.125-0.612-1.979-0.612h-3.044V38.627z"/>
<path fill="#FFFFFF" d="M207.303,46.222l-1.099-2.772h-6.93l-1.119,2.772h-4.299l6.885-15.663h4.299l6.729,15.663h-4.46H207.303z
	 M200.528,40.319h4.441l-2.198-5.587L200.528,40.319z"/>
<path fill="#FFFFFF" d="M68.536,10.615h11.992l-0.026,3.264h-7.777v3.485h7.182v3.264h-7.182v5.657h-4.189V10.615z"/>
<path fill="#FFFFFF" d="M97.07,26.284l-1.099-2.771h-6.93l-1.118,2.771h-4.305l6.885-15.663h4.299l6.73,15.663H97.07z
	 M90.296,20.381h4.441l-2.198-5.587L90.296,20.381z"/>
<path fill="#FFFFFF" d="M105.675,10.615h4.182v12.178h6.801v3.491h-10.983V10.615z"/>
<path fill="#FFFFFF" d="M129.328,14.125c-0.97-0.316-1.784-0.467-2.437-0.467c-0.517,0-0.924,0.095-1.222,0.278
	c-0.297,0.183-0.446,0.461-0.446,0.814c0,0.354,0.129,0.631,0.388,0.859c0.259,0.227,0.582,0.417,0.963,0.556
	c0.382,0.139,0.944,0.322,1.694,0.549c1.112,0.316,2.03,0.625,2.76,0.941c0.724,0.309,1.345,0.789,1.862,1.439
	c0.517,0.65,0.776,1.496,0.776,2.538c0,1.042-0.285,1.932-0.847,2.671c-0.563,0.739-1.338,1.294-2.321,1.667
	c-0.982,0.372-2.081,0.556-3.284,0.556c-1.325,0-2.65-0.227-3.969-0.682c-1.319-0.455-2.463-1.08-3.42-1.869l1.623-3.194
	c0.808,0.701,1.765,1.275,2.87,1.723c1.106,0.448,2.088,0.669,2.941,0.669c0.628,0,1.119-0.107,1.474-0.335
	c0.356-0.221,0.537-0.549,0.537-0.985c0-0.36-0.136-0.657-0.401-0.89c-0.265-0.24-0.601-0.429-1.008-0.568
	c-0.408-0.139-0.976-0.309-1.707-0.505c-1.099-0.297-2.004-0.6-2.722-0.903c-0.717-0.303-1.331-0.77-1.842-1.389
	c-0.511-0.619-0.769-1.439-0.769-2.468c0-0.966,0.265-1.818,0.789-2.544c0.53-0.732,1.273-1.294,2.243-1.686
	c0.969-0.391,2.094-0.593,3.374-0.593c1.157,0,2.301,0.164,3.433,0.48c1.125,0.322,2.12,0.751,2.973,1.288l-1.577,3.264
	c-0.853-0.492-1.765-0.89-2.734-1.206"/>
<path fill="#FFFFFF" d="M150.383,26.284l-1.099-2.771h-6.93l-1.118,2.771h-4.306l6.885-15.663h4.299l6.729,15.663H150.383z
	 M143.608,20.381h4.441l-2.198-5.587L143.608,20.381z"/>
<path fill="#FFFFFF" d="M50.526,21.082c0.827-1.831,1.913-3.529,3.213-5.063c-0.504-1.035-1.08-2.027-1.707-2.986
	c-1.939,2.058-3.517,4.419-4.648,7.008l-1.752-0.581l0.207-0.612c1.002-2.929,2.625-5.581,4.758-7.816
	c-0.679-0.859-1.403-1.673-2.172-2.45c-2.573,2.62-4.519,5.764-5.715,9.243l-0.207,0.594l-20.757-6.901L25.58,0.311
	c-1.248,0.107-2.469,0.29-3.665,0.549l-3.284,9.615L9.102,7.306C8.197,8.102,7.344,8.954,6.549,9.863l11.041,3.668l-2.89,8.454
	L1.745,17.578c-0.407,0.991-0.763,2.008-1.054,3.056l12.968,4.413l-3.536,10.354L0,32.023c0.187,1.256,0.472,2.481,0.827,3.681
	l8.255,2.753l-2.56,7.507c0.808,0.922,1.668,1.787,2.592,2.595l3.09-9.066l8.255,2.753L16.465,53.23
	c0.996,0.436,2.023,0.827,3.083,1.155l4.04-11.093l9.354,3.119l-3.148,9.205c1.235-0.069,2.444-0.221,3.627-0.442l2.644-7.721
	l1.674,0.556l-2.301,6.718c1.351-0.354,2.67-0.802,3.93-1.332l1.487-4.344l3.943,1.313c1.041-0.739,2.03-1.547,2.954-2.418
	l-5.85-1.951l7.492-21.901l7.066,2.349c-0.065-1.206-0.213-2.386-0.433-3.548l-5.488-1.824L50.526,21.082z M13.246,36.443
	l7.466-21.876l11.429,3.801l-7.706,21.806L13.246,36.443z M33.977,43.362l-6.419-2.14l7.706-21.813l6.206,2.064L33.977,43.362z
	 M38.767,44.959l-1.674-0.556l7.492-21.895l1.674,0.556L38.767,44.959z"/>
<path fill="#FFFFFF" d="M26.743,27.427c0,2.184-1.81,3.952-4.047,3.952s-4.047-1.768-4.047-3.952c0-2.184,1.81-3.952,4.047-3.952
	S26.743,25.243,26.743,27.427z"/>
</svg>
