<svg width="232" height="67" viewBox="0 0 232 67" fill="none" xmlns="http://www.w3.org/2000/svg">
<path d="M119.47 50.4772H132.03V53.7096H123.626V56.6201H131.209V59.8336L123.626 59.8588V62.7882H132.257V66.0207H119.47V50.4772Z" fill="#171717"/>
<path d="M144.759 53.9558C143.796 53.6465 142.994 53.4886 142.341 53.4886C141.824 53.4886 141.423 53.5833 141.126 53.7664C140.828 53.9495 140.68 54.221 140.68 54.5745C140.68 54.9281 140.809 55.1996 141.068 55.4268C141.326 55.6541 141.643 55.8435 142.024 55.9824C142.406 56.1213 142.962 56.3044 143.705 56.5254C144.811 56.8347 145.722 57.1441 146.446 57.4597C147.164 57.7691 147.784 58.2489 148.295 58.8929C148.806 59.5368 149.064 60.3765 149.064 61.4119C149.064 62.4473 148.786 63.3312 148.224 64.0635C147.661 64.7959 146.899 65.3451 145.916 65.7176C144.94 66.0901 143.854 66.2732 142.658 66.2732C141.339 66.2732 140.027 66.0459 138.715 65.5977C137.402 65.1494 136.271 64.5307 135.321 63.7479L136.93 60.5785C137.732 61.273 138.682 61.8412 139.781 62.2895C140.88 62.7314 141.85 62.9524 142.697 62.9524C143.317 62.9524 143.809 62.8387 144.164 62.6178C144.52 62.3968 144.701 62.0685 144.701 61.6392C144.701 61.2856 144.571 60.9889 144.306 60.7553C144.041 60.5217 143.705 60.3323 143.311 60.1871C142.91 60.0482 142.348 59.8778 141.617 59.6884C140.525 59.3916 139.626 59.0949 138.915 58.7919C138.204 58.4888 137.596 58.0279 137.085 57.4155C136.581 56.8031 136.323 55.9824 136.323 54.966C136.323 54.0063 136.588 53.1603 137.105 52.4406C137.628 51.7146 138.372 51.159 139.329 50.7676C140.292 50.3761 141.404 50.1804 142.677 50.1804C143.828 50.1804 144.966 50.3383 146.084 50.6602C147.202 50.9759 148.191 51.4052 149.038 51.9355L147.474 55.1743C146.627 54.6882 145.722 54.2904 144.759 53.9748" fill="#171717"/>
<path d="M151.495 50.4772H165.141V53.8233H160.377V66.0207H156.22V53.8233H151.495V50.4772Z" fill="#171717"/>
<path d="M173.299 61.9612C173.888 62.5547 174.637 62.8514 175.549 62.8514C176.46 62.8514 177.165 62.561 177.715 61.9738C178.264 61.393 178.542 60.6038 178.542 59.6126V50.4772H182.699V59.6126C182.699 60.9574 182.408 62.138 181.826 63.1481C181.244 64.1583 180.41 64.9411 179.324 65.4904C178.238 66.0396 176.971 66.3111 175.517 66.3111C174.062 66.3111 172.789 66.0396 171.69 65.4904C170.591 64.9411 169.744 64.1646 169.143 63.1481C168.541 62.1317 168.244 60.9574 168.244 59.6126V50.4772H172.401V59.6126C172.401 60.5912 172.698 61.3741 173.286 61.9612" fill="#171717"/>
<path d="M198.517 51.4494C199.797 52.0997 200.793 53.0151 201.504 54.1894C202.215 55.3637 202.571 56.7148 202.571 58.2363C202.571 59.7578 202.209 61.1152 201.491 62.2958C200.773 63.4764 199.758 64.3981 198.446 65.0484C197.134 65.6987 195.634 66.0207 193.934 66.0207H187.237V50.4708H194.096C195.763 50.4708 197.231 50.7991 198.511 51.4431M196.345 62.1758C196.966 61.8096 197.451 61.2793 197.8 60.6038C198.149 59.9219 198.323 59.1454 198.323 58.2742C198.323 57.4029 198.136 56.6011 197.767 55.9193C197.399 55.2374 196.888 54.7134 196.235 54.3346C195.582 53.9558 194.839 53.7727 194.012 53.7727H191.4V62.7314H194.218C195.02 62.7314 195.731 62.5483 196.352 62.1758" fill="#171717"/>
<path d="M210.502 50.4772H206.346V66.027H210.502V50.4772Z" fill="#171717"/>
<path d="M227.278 51.2726C228.59 51.9671 229.618 52.9204 230.368 54.1326C231.118 55.3448 231.493 56.7084 231.493 58.211C231.493 59.7136 231.118 61.1089 230.368 62.34C229.618 63.5648 228.59 64.537 227.278 65.2441C225.965 65.9512 224.504 66.3111 222.882 66.3111C221.259 66.3111 219.798 65.9575 218.486 65.2568C217.174 64.556 216.146 63.5837 215.396 62.3526C214.646 61.1215 214.271 59.7389 214.271 58.2173C214.271 56.6958 214.646 55.3511 215.396 54.1389C216.146 52.9267 217.174 51.9734 218.486 51.279C219.798 50.5845 221.259 50.2372 222.882 50.2372C224.504 50.2372 225.965 50.5845 227.278 51.279M220.736 54.2715C220.063 54.6692 219.527 55.2248 219.133 55.9256C218.738 56.6264 218.544 57.4029 218.544 58.2426C218.544 59.0823 218.745 59.8841 219.145 60.5849C219.546 61.2856 220.083 61.8412 220.749 62.2516C221.414 62.6556 222.139 62.864 222.927 62.864C223.716 62.864 224.44 62.662 225.093 62.2516C225.752 61.8475 226.269 61.292 226.651 60.5849C227.032 59.8841 227.22 59.1012 227.22 58.2426C227.22 57.384 227.032 56.6264 226.651 55.9256C226.269 55.2248 225.752 54.6755 225.093 54.2715C224.433 53.8737 223.709 53.6717 222.927 53.6717C222.145 53.6717 221.408 53.8737 220.736 54.2715Z" fill="#171717"/>
<path d="M68.5363 30.5585H81.1937V33.8162H72.7252V36.7456H80.3662V39.9843L72.7252 40.0096V42.9579H81.4199V46.222H68.5363V30.5585Z" fill="#171717"/>
<path d="M94.0127 34.0624C93.043 33.7467 92.2285 33.5952 91.5756 33.5952C91.0585 33.5952 90.6512 33.6899 90.3538 33.873C90.0565 34.0561 89.9078 34.3339 89.9078 34.6874C89.9078 35.041 90.0371 35.3188 90.2956 35.5461C90.5542 35.7733 90.8774 35.9627 91.2589 36.1016C91.6403 36.2405 92.2027 36.4236 92.9525 36.6509C94.0644 36.9666 94.9824 37.2759 95.7129 37.5916C96.4369 37.9073 97.0575 38.3808 97.5746 39.031C98.0918 39.6813 98.3504 40.5273 98.3504 41.569C98.3504 42.6107 98.0659 43.5009 97.5035 44.2396C96.9411 44.9782 96.1654 45.5338 95.1828 45.9063C94.2002 46.2788 93.1077 46.4619 91.8988 46.4619C90.5736 46.4619 89.2484 46.2346 87.9297 45.78C86.6109 45.3255 85.4732 44.7004 84.5099 43.9113L86.1325 40.7167C86.9406 41.4175 87.8973 41.992 89.0028 42.4403C90.1082 42.8885 91.0908 43.1095 91.9441 43.1095C92.5711 43.1095 93.0624 42.9958 93.418 42.7749C93.78 42.5539 93.9545 42.2256 93.9545 41.79C93.9545 41.4301 93.8188 41.1334 93.5537 40.8998C93.2887 40.6599 92.9525 40.4705 92.5453 40.3316C92.1445 40.1927 91.5692 40.0222 90.8387 39.8265C89.7397 39.5298 88.8347 39.2268 88.1171 38.9237C87.3996 38.6207 86.7854 38.1535 86.2748 37.5348C85.7641 36.9161 85.5055 36.0953 85.5055 35.0662C85.5055 34.094 85.7705 33.248 86.2941 32.5156C86.8178 31.7833 87.5676 31.2214 88.5373 30.83C89.507 30.4385 90.6318 30.2365 91.9118 30.2365C93.0689 30.2365 94.2131 30.4007 95.3444 30.7163C96.4692 31.0383 97.4647 31.4676 98.318 32.0043L96.7407 35.2683C95.8874 34.7758 94.9759 34.3781 94.0063 34.0624" fill="#171717"/>
<path d="M111.939 34.3402C111.221 33.9614 110.51 33.772 109.812 33.772C109.004 33.772 108.267 33.9677 107.601 34.3654C106.935 34.7632 106.418 35.3061 106.03 36.0006C105.649 36.6951 105.461 37.4653 105.461 38.3113C105.461 39.1573 105.655 39.9338 106.03 40.622C106.412 41.3165 106.935 41.8594 107.601 42.2508C108.267 42.6486 108.997 42.8443 109.812 42.8443C110.465 42.8443 111.156 42.6802 111.868 42.3519C112.585 42.0236 113.225 41.5816 113.788 41.0134L116.238 43.583C115.371 44.4795 114.337 45.1866 113.135 45.7169C111.939 46.2472 110.749 46.5124 109.579 46.5124C107.995 46.5124 106.56 46.1525 105.28 45.4391C104 44.7257 102.992 43.7471 102.261 42.5097C101.531 41.2723 101.162 39.8896 101.162 38.3555C101.162 36.8213 101.537 35.464 102.281 34.2455C103.024 33.027 104.052 32.0611 105.358 31.3603C106.664 30.6595 108.125 30.3123 109.741 30.3123C110.93 30.3123 112.107 30.5522 113.264 31.0383C114.421 31.5244 115.404 32.181 116.218 33.0144L113.794 35.8743C113.277 35.2304 112.656 34.7253 111.939 34.3402Z" fill="#171717"/>
<path d="M124.551 42.1309C125.146 42.7243 125.902 43.0274 126.813 43.0274C127.725 43.0274 128.442 42.7307 128.998 42.1435C129.554 41.5564 129.832 40.7609 129.832 39.7634V30.5585H134.021V39.7634C134.021 41.1207 133.73 42.3077 133.142 43.3241C132.554 44.3406 131.713 45.1297 130.627 45.679C129.535 46.2283 128.261 46.5061 126.794 46.5061C125.327 46.5061 124.047 46.2283 122.941 45.679C121.836 45.1297 120.982 44.3406 120.381 43.3241C119.78 42.3013 119.476 41.1144 119.476 39.7634V30.5585H123.665V39.7634C123.665 40.7419 123.963 41.5374 124.557 42.1309" fill="#171717"/>
<path d="M150.383 46.222L149.284 43.4504H142.354L141.236 46.222H136.93L143.815 30.5585H148.114L154.843 46.222H150.383ZM143.608 40.3189H148.049L145.851 34.7316L143.608 40.3189Z" fill="#171717"/>
<path d="M169.356 31.537C170.649 32.1936 171.651 33.1154 172.369 34.296C173.086 35.4829 173.442 36.8403 173.442 38.3744C173.442 39.9086 173.08 41.2723 172.356 42.4655C171.632 43.6587 170.61 44.5805 169.291 45.2371C167.973 45.8937 166.46 46.222 164.747 46.222H157.998V30.5585H164.909C166.583 30.5585 168.07 30.8868 169.356 31.5434M167.171 42.3582C167.798 41.9857 168.283 41.4554 168.639 40.7735C168.988 40.0853 169.162 39.3025 169.162 38.4249C169.162 37.5474 168.975 36.7393 168.6 36.0574C168.225 35.3756 167.708 34.8389 167.055 34.4601C166.395 34.0813 165.652 33.8919 164.812 33.8919H162.181V42.9201H165.018C165.827 42.9201 166.544 42.7307 167.171 42.3582Z" fill="#171717"/>
<path d="M186.875 46.222L184.541 41.8847H181.432V46.222H177.243V30.5585H184.451C186.571 30.5585 188.213 31.0383 189.383 31.9979C190.547 32.9576 191.135 34.3086 191.135 36.0511C191.135 37.2317 190.889 38.2418 190.404 39.1005C189.913 39.9591 189.208 40.6283 188.278 41.1018L191.62 46.222H186.881H186.875ZM181.432 38.627H184.476C185.33 38.627 185.989 38.4186 186.455 38.0019C186.92 37.5853 187.153 36.9792 187.153 36.19C187.153 35.4008 186.92 34.8453 186.455 34.4349C185.989 34.0245 185.33 33.8225 184.476 33.8225H181.432V38.627Z" fill="#171717"/>
<path d="M207.303 46.222L206.204 43.4504H199.274L198.155 46.222H193.856L200.741 30.5585H205.04L211.769 46.222H207.309H207.303ZM200.528 40.3189H204.969L202.771 34.7316L200.528 40.3189Z" fill="#171717"/>
<path d="M68.5363 10.6145H80.5278L80.502 13.8785H72.7252V17.3635H79.9073V20.6275H72.7252V26.2843H68.5363V10.6145Z" fill="#171717"/>
<path d="M97.0704 26.2843L95.9715 23.5128H89.0415L87.9232 26.2843H83.6179L90.5025 10.6208H94.8014L101.531 26.2843H97.0704ZM90.2956 20.3813H94.7367L92.5388 14.794L90.2956 20.3813Z" fill="#171717"/>
<path d="M105.675 10.6145H109.857V22.793H116.658V26.2843H105.675V10.6145Z" fill="#171717"/>
<path d="M129.328 14.1248C128.358 13.8091 127.544 13.6576 126.891 13.6576C126.374 13.6576 125.967 13.7523 125.669 13.9354C125.372 14.1185 125.223 14.3962 125.223 14.7498C125.223 15.1033 125.352 15.3811 125.611 15.6084C125.87 15.8357 126.193 16.0251 126.574 16.164C126.956 16.3029 127.518 16.486 128.268 16.7132C129.38 17.0289 130.298 17.3383 131.028 17.6539C131.752 17.9633 132.373 18.4431 132.89 19.0934C133.407 19.7437 133.666 20.5897 133.666 21.6314C133.666 22.6731 133.381 23.5633 132.819 24.3019C132.256 25.0406 131.481 25.5962 130.498 25.9687C129.516 26.3411 128.417 26.5242 127.214 26.5242C125.889 26.5242 124.564 26.2969 123.245 25.8424C121.926 25.3878 120.782 24.7628 119.825 23.9736L121.448 20.7791C122.256 21.4798 123.213 22.0544 124.318 22.5026C125.424 22.9509 126.406 23.1718 127.259 23.1718C127.887 23.1718 128.378 23.0645 128.733 22.8372C129.089 22.6163 129.27 22.288 129.27 21.8523C129.27 21.4925 129.134 21.1957 128.869 20.9621C128.604 20.7222 128.268 20.5328 127.861 20.3939C127.453 20.2551 126.885 20.0846 126.154 19.8889C125.055 19.5921 124.15 19.2891 123.432 18.9861C122.715 18.683 122.101 18.2158 121.59 17.5971C121.079 16.9784 120.821 16.1577 120.821 15.1286C120.821 14.1626 121.086 13.3103 121.61 12.5843C122.14 11.852 122.883 11.2901 123.853 10.8986C124.822 10.5072 125.947 10.3052 127.227 10.3052C128.384 10.3052 129.528 10.4693 130.66 10.785C131.785 11.107 132.78 11.5363 133.633 12.0729L132.056 15.3369C131.203 14.8445 130.291 14.4467 129.322 14.1311" fill="#171717"/>
<path d="M150.383 26.2843L149.284 23.5128H142.354L141.236 26.2843H136.93L143.815 10.6208H148.114L154.843 26.2843H150.383ZM143.608 20.3813H148.049L145.851 14.794L143.608 20.3813Z" fill="#171717"/>
<path d="M50.5263 21.0821C51.3537 19.2512 52.4397 17.5529 53.7391 16.0188C53.2349 14.9834 52.6595 13.9922 52.0325 13.0325C50.0931 15.0907 48.5158 17.4519 47.3845 20.0404L45.6327 19.4596L45.8395 18.8472C46.8415 15.9178 48.4641 13.2661 50.5974 11.0312C49.9186 10.1726 49.1946 9.35816 48.4253 8.58161C45.8525 11.2017 43.9067 14.3457 42.7107 17.8244L42.5039 18.4179L21.7465 11.5173L25.5799 0.311096C24.3322 0.418424 23.1105 0.601511 21.9145 0.86036L18.6306 10.4756L9.10197 7.30631C8.19694 8.1018 7.34363 8.9541 6.5485 9.86323L17.5898 13.5313L14.7002 21.9849L1.74541 17.5782C1.33814 18.5694 0.982599 19.5858 0.691698 20.6338L13.6594 25.0469L10.1234 35.4008L0 32.0232C0.187469 33.2795 0.471906 34.5043 0.827452 35.7039L9.08257 38.4565L6.52265 45.9631C7.3307 46.8848 8.19048 47.7498 9.1149 48.5579L12.2049 39.4919L20.46 42.2445L16.465 53.2298C17.4605 53.6654 18.4884 54.0568 19.5485 54.3851L23.5888 43.2925L32.9429 46.4113L29.7947 55.6162C31.0294 55.5468 32.2383 55.3953 33.4213 55.1743L36.0653 47.453L37.7396 48.0086L35.4382 54.7261C36.7893 54.3725 38.108 53.9243 39.3686 53.3939L40.8554 49.0503L44.7988 50.3635C45.8395 49.6249 46.8286 48.8167 47.753 47.9455L41.9027 45.9947L49.395 24.0936L56.4606 26.4421C56.396 25.2363 56.2473 24.0557 56.0275 22.894L50.5392 21.0695L50.5263 21.0821ZM13.2457 36.4425L20.7121 14.5667L32.1413 18.3673L24.4357 40.1737L13.2457 36.4425ZM33.9772 43.362L27.558 41.2218L35.2637 19.409L41.4696 21.4735L33.9772 43.362ZM38.7674 44.9593L37.0931 44.4037L44.5854 22.5089L46.2597 23.0645L38.7674 44.9593Z" fill="#171717"/>
<path d="M26.7435 27.427C26.7435 29.6115 24.9334 31.3792 22.6967 31.3792C20.46 31.3792 18.65 29.6115 18.65 27.427C18.65 25.2426 20.46 23.4749 22.6967 23.4749C24.9334 23.4749 26.7435 25.2426 26.7435 27.427Z" fill="#171717"/>
</svg>
