<svg width="306" height="148" viewBox="0 0 306 148" fill="none" xmlns="http://www.w3.org/2000/svg">
<path d="M268.276 110.369C269.716 110.321 270.98 110.821 272.069 111.868C273.158 112.914 273.702 114.186 273.7 115.683C273.751 117.177 273.251 118.441 272.201 119.477C271.207 120.562 269.964 121.13 268.47 121.181C262.223 121.297 254.842 121.627 246.325 122.169C225.405 123.471 201.871 125.625 175.724 128.629C149.58 131.687 130.282 134.4 117.831 136.767C117.622 136.836 117.411 136.877 117.198 136.892C115.811 136.935 114.58 136.54 113.506 135.707C112.432 134.873 111.769 133.796 111.516 132.478C111.411 131.736 111.44 131.013 111.605 130.306C111.607 128.809 112.281 127.746 113.627 127.117C114.289 126.643 115.015 126.325 115.806 126.163C128.417 123.784 147.955 121.055 174.418 117.974C200.884 114.947 224.656 112.751 245.732 111.384C254.407 110.831 261.922 110.492 268.276 110.369ZM271.336 118.575C272.135 117.771 272.522 116.808 272.497 115.687C272.472 114.566 272.057 113.606 271.253 112.807C270.452 112.061 269.516 111.672 268.445 111.64C269.561 112.31 270.137 113.286 270.173 114.567C270.187 115.528 269.844 116.354 269.143 117.044C268.5 117.784 267.698 118.161 266.736 118.175C247.516 118.557 221.376 120.518 188.316 124.06C155.259 127.654 131.08 130.896 115.777 133.783C115.622 133.848 115.464 133.886 115.304 133.897C114.502 133.899 113.766 133.684 113.094 133.249C113.465 133.972 114.013 134.548 114.738 134.979C115.467 135.463 116.257 135.675 117.108 135.615C117.268 135.604 117.428 135.593 117.587 135.582C130.092 133.21 149.443 130.494 175.64 127.432C201.788 124.428 225.32 122.247 246.236 120.892C254.752 120.35 262.161 120.019 268.461 119.899C269.582 119.874 270.54 119.433 271.336 118.575ZM297.553 108.161C298.298 108.109 299.023 108.165 299.73 108.33C300.49 108.49 301.149 108.738 301.707 109.073C302.322 109.458 302.859 109.875 303.318 110.324C303.781 110.826 304.141 111.389 304.398 112.013C304.709 112.633 304.887 113.262 304.931 113.9C305.05 115.603 304.459 117.088 303.158 118.355C301.86 119.675 300.253 120.402 298.338 120.536C296.423 120.67 294.731 120.174 293.262 119.047C291.846 117.916 291.079 116.5 290.96 114.797C290.926 114.318 290.971 113.807 291.093 113.264C291.137 111.604 292.011 110.34 293.715 109.472C294.837 108.698 296.116 108.261 297.553 108.161ZM298.254 119.339C299.851 119.228 301.174 118.654 302.224 117.618C303.274 116.582 303.751 115.373 303.654 113.99C303.626 112.815 303.128 111.808 302.16 110.966C301.245 110.122 300.14 109.611 298.845 109.434C300.394 110.181 301.223 111.326 301.331 112.869C301.416 114.093 300.981 115.139 300.026 116.008C299.075 116.93 297.908 117.439 296.524 117.536C295.035 117.64 293.753 117.275 292.679 116.441C293.171 117.369 293.917 118.092 294.915 118.61C295.967 119.125 297.08 119.368 298.254 119.339ZM282.06 109.084C283.975 108.95 285.64 109.448 287.056 110.579C288.525 111.706 289.292 113.123 289.358 114.829C289.436 115.946 289.188 116.979 288.613 117.928C288.094 118.927 287.295 119.731 286.215 120.342C285.192 121.001 284.068 121.374 282.845 121.459C280.873 121.544 279.179 121.021 277.763 119.89C276.351 118.813 275.585 117.423 275.466 115.72C275.429 115.188 275.474 114.677 275.6 114.187C275.587 112.477 276.435 111.215 278.142 110.401C279.317 109.623 280.623 109.184 282.06 109.084ZM282.755 120.183C284.298 120.075 285.595 119.503 286.645 118.467C287.749 117.427 288.254 116.243 288.161 114.913C288.079 113.742 287.579 112.708 286.661 111.81C285.746 110.965 284.617 110.482 283.272 110.363C284.874 111.106 285.729 112.249 285.837 113.792C285.866 114.966 285.405 116.014 284.453 116.936C283.555 117.854 282.388 118.364 280.951 118.464C279.511 118.511 278.254 118.118 277.18 117.284C277.619 118.216 278.338 118.941 279.337 119.459C280.392 120.027 281.532 120.268 282.755 120.183Z" fill="#7291A0"/>
<path d="M90.1392 60.9888C92.214 57.1668 93.5921 53.0309 94.2736 48.5813C94.775 44.5221 94.6472 40.9195 93.8901 37.7735C93.1862 34.6229 92.0705 32.579 90.543 31.6419C88.3361 30.2824 85.5856 29.7468 82.2915 30.035C77.7755 30.4301 72.7739 32.3132 67.2868 35.6842C61.8482 38.9975 56.4807 43.4289 51.1842 48.9783C45.9362 54.4699 41.154 60.697 36.8378 67.6597C30.5849 77.5758 26.0843 87.6329 23.336 97.8313C20.5878 108.03 20.0909 116.425 21.8454 123.017C22.9611 127.202 24.8974 130.058 27.6542 131.583C29.7893 132.735 32.3445 133.181 35.3199 132.92C40.1547 132.497 45.7706 130.293 52.1676 126.307C54.0935 125.068 56.061 123.691 58.0701 122.177C64.5474 117.273 71.1349 111.183 77.8327 103.905C84.5259 96.5734 90.7429 88.695 96.4838 80.2692C96.9154 79.6961 97.4384 79.2488 98.0528 78.9274C99.0111 78.2546 100.048 77.8694 101.164 77.7718C102.598 77.6463 103.913 77.9864 105.108 78.792C106.471 79.6899 107.305 80.9554 107.608 82.5885C107.912 84.2216 107.588 85.7222 106.637 87.0903C100.614 95.9689 94.0315 104.254 86.8881 111.946C79.8024 119.686 72.82 126.16 65.9409 131.366C55.0484 139.653 45.1658 144.185 36.293 144.961C30.9268 145.431 26.1063 144.487 21.8313 142.131C16.0381 138.944 12.1716 133.607 10.2318 126.121C8.94476 121.201 8.58254 115.531 9.14513 109.111C9.14048 109.058 9.13351 108.978 9.12421 108.872C9.16804 108.761 9.18531 108.652 9.17602 108.546C9.21985 108.435 9.23944 108.353 9.23479 108.3C9.88705 101.069 11.6756 93.3639 14.6006 85.1845C17.5786 77.0005 21.5097 69.0008 26.3938 61.1853C31.5156 53.0279 37.1266 45.8716 43.2267 39.7166C49.3221 33.5083 55.4783 28.6065 61.6953 25.0109C68.6189 20.9253 75.1622 18.6129 81.3254 18.0737C87.2228 17.5577 92.4339 18.6811 96.9586 21.444C99.7386 23.2352 101.98 25.9033 103.682 29.4485C105.384 32.9936 106.358 37.0843 106.603 41.7206C106.743 44.5458 106.593 47.4232 106.153 50.3526C105.767 53.2774 105.107 56.1458 104.176 58.9577C103.297 61.765 102.192 64.4315 100.86 66.9571C99.8447 68.8127 98.2478 69.8358 96.0694 70.0263C94.9006 70.1286 93.7835 69.9051 92.7183 69.3559C91.2579 68.5735 90.2962 67.3727 89.8333 65.7536C89.5418 64.869 89.487 63.9369 89.669 62.9573C89.6617 62.2619 89.8184 61.6058 90.1392 60.9888ZM105.327 41.8322C105.096 37.3553 104.192 33.4459 102.615 30.104C101.033 26.7089 98.9121 24.1908 96.2523 22.5497C94.0985 21.1856 91.7406 20.2408 89.1783 19.7155C90.9389 20.2574 92.6096 20.9946 94.1902 21.9271C96.7391 23.5244 98.7733 25.9697 100.293 29.2631C101.865 32.5519 102.763 36.3816 102.984 40.7523C103.178 44.8041 102.792 48.9602 101.827 53.2206C100.856 57.4279 99.4041 61.3293 97.4702 64.9249C96.9163 65.937 96.0931 66.6247 95.0006 66.9879C93.9034 67.2981 92.8488 67.1762 91.8367 66.6223C91.7211 66.5253 91.579 66.4307 91.4103 66.3384C91.8566 67.1559 92.5014 67.7955 93.3449 68.2571C94.1883 68.7187 95.0616 68.9099 95.9649 68.8309C97.7182 68.6775 98.9837 67.844 99.7614 66.3305C101.744 62.6772 103.218 58.7203 104.184 54.4599C105.145 50.1464 105.526 45.9372 105.327 41.8322ZM105.611 86.377C106.373 85.2931 106.618 84.1206 106.347 82.8594C106.125 81.5405 105.474 80.5267 104.395 79.818C103.653 79.294 102.826 79.0184 101.913 78.9912C102.024 79.035 102.137 79.1054 102.253 79.2024C103.221 79.8672 103.807 80.7528 104.011 81.8592C104.215 82.9657 104.011 84.0007 103.399 84.9643C97.3676 93.7368 90.8308 101.938 83.7889 109.567C76.8049 117.245 69.8975 123.658 63.0669 128.806C52.4215 136.858 42.8749 141.254 34.4272 141.993C29.4329 142.43 24.967 141.562 21.0294 139.39C19.2316 138.423 17.5965 137.175 16.1242 135.644C17.9272 137.895 20.0385 139.691 22.4579 141.032C26.5064 143.248 31.0809 144.132 36.1814 143.686C44.7886 142.933 54.4656 138.5 65.2127 130.385C72.0433 125.237 78.9772 118.822 86.0144 111.139C93.1047 103.452 99.6369 95.1979 105.611 86.377ZM91.1766 30.6228C91.4031 30.7636 91.6584 30.9287 91.9427 31.118C91.2699 30.1596 90.5384 29.4473 89.7481 28.9811C86.8571 27.1461 83.1941 26.5832 78.7591 27.2924C74.3771 27.997 69.6435 29.8834 64.5583 32.9516C62.3228 34.325 60.1036 35.8844 57.9007 37.6297C55.6977 39.375 53.5087 41.2797 51.3337 43.3438C49.2118 45.4032 47.1038 47.6221 45.0098 50.0003C42.9642 52.3207 40.9592 54.7982 38.9947 57.4328C37.0833 60.0627 35.232 62.7677 33.4408 65.5477C27.1002 75.6856 22.5409 85.9889 19.7627 96.4575C16.9845 106.926 16.4843 115.589 18.2621 122.447C19.5306 127.155 21.7673 130.385 24.9724 132.139C26.1532 132.785 27.4771 133.232 28.9442 133.478C28.2834 133.268 27.6445 133.003 27.0275 132.682C23.9334 130.972 21.8145 127.865 20.6709 123.361C18.8978 116.556 19.3784 107.975 22.1127 97.6171C24.9002 87.2547 29.4423 77.06 35.739 67.0331C40.1522 59.9549 45.0071 53.641 50.3036 48.0916C55.6485 42.4845 61.0911 37.993 66.6313 34.6173C72.3216 31.1214 77.5045 29.1689 82.18 28.7599C85.7397 28.4484 88.7386 29.0694 91.1766 30.6228ZM121.329 100.983C119.257 101.164 117.364 100.634 115.649 99.3916C115.591 99.3431 115.507 99.297 115.396 99.2531C115.833 99.9644 116.367 100.56 116.998 101.04C119.165 102.564 121.617 103.045 124.352 102.485C128.193 101.721 132.366 98.6251 136.87 93.1985L138.544 93.0521C133.573 99.269 128.906 102.836 124.543 103.753C124.123 103.843 123.7 103.907 123.275 103.944C120.724 104.167 118.394 103.541 116.284 102.066C115.427 101.445 114.742 100.649 114.228 99.6765C109.836 103.327 106.049 105.318 102.866 105.65C102.813 105.654 102.733 105.661 102.627 105.67C99.917 105.908 97.6307 105.171 95.7678 103.46C93.6646 101.449 92.8547 98.9232 93.3382 95.8828C93.402 94.164 94.0363 92.2347 95.241 90.0949C96.3488 88.0707 98.6607 84.8168 102.177 80.3333C103.433 78.7779 104.371 77.5715 104.992 76.7141C105.613 75.8568 106.326 74.8307 107.132 73.6359C107.99 72.4365 108.6 71.4463 108.96 70.6653C109.32 69.8843 109.884 69.2995 110.653 68.911C111.51 68.3007 112.443 67.9514 113.453 67.8631C114.409 67.7794 115.333 67.9395 116.225 68.3433C117.565 68.9755 118.484 69.9926 118.982 71.3946C119.474 72.7435 119.407 74.1146 118.779 75.5079C117.699 77.8509 115.086 81.6398 110.94 86.8744C109.79 88.4205 108.854 89.6534 108.132 90.5732C109.623 89.2649 111.203 87.7348 112.87 85.9828C116.949 81.8248 120.884 77.2244 124.672 72.1817C125.53 70.9823 126.438 69.7251 127.393 68.4101C127.728 67.9525 128.178 67.5919 128.744 67.3283C129.548 66.7226 130.481 66.3733 131.544 66.2803C132.819 66.1688 133.998 66.4939 135.082 67.2556C136.277 68.0612 136.992 69.2032 137.229 70.6816C137.518 72.1553 137.26 73.4895 136.455 74.6843C135.644 75.8259 134.711 77.0854 133.653 78.4628C130.325 83.2511 127.788 87.301 126.043 90.6123C129.052 87.6722 132.316 83.3714 135.836 77.7097C136.355 76.9147 137.086 76.3957 138.029 76.1527C138.971 75.9096 139.84 76.0478 140.635 76.5671C141.483 77.0818 142.002 77.8127 142.192 78.7598C142.435 79.7022 142.299 80.5974 141.784 81.4455C138.225 87.2712 134.822 91.8251 131.576 95.1072C128.325 98.3361 125.279 100.236 122.438 100.805C122.071 100.891 121.701 100.95 121.329 100.983ZM135.429 73.971C136.045 73.0605 136.251 72.052 136.047 70.9455C135.839 69.786 135.279 68.898 134.369 68.2817C133.68 67.753 132.879 67.4751 131.967 67.4479C132.083 67.5448 132.169 67.6175 132.227 67.666C133.027 68.2385 133.495 69.0006 133.632 69.9523C133.817 70.8462 133.65 71.6907 133.13 72.4856C132.373 73.6226 131.466 74.8798 130.409 76.2572C124.358 84.8171 121.021 90.7304 120.397 93.9973C120.609 93.9787 120.822 93.9601 121.034 93.9415C121.769 93.7702 122.666 93.3169 123.726 92.5817C125.332 88.9078 128.326 83.9614 132.707 77.7425C133.764 76.3651 134.672 75.108 135.429 73.971ZM117.687 74.961C118.184 73.9004 118.226 72.8527 117.814 71.818C117.398 70.7302 116.686 69.9358 115.678 69.4351C115.124 69.2159 114.552 69.1053 113.963 69.1033C114.748 69.5164 115.26 70.1676 115.499 71.0569C115.786 71.8884 115.725 72.7235 115.316 73.5623C114.285 75.8476 111.771 79.5474 107.775 84.6618C103.246 90.4118 100.783 94.0804 100.386 95.6677C101.386 95.4731 102.794 94.7343 104.609 93.4512C105.692 91.7504 107.487 89.318 109.994 86.1541C114.038 80.9819 116.603 77.2509 117.687 74.961ZM114.023 98.249L114.248 98.0687C113.811 97.3574 113.529 96.579 113.402 95.7336C113.388 95.5742 113.376 95.4414 113.367 95.3351C108.305 99.9003 104.156 102.351 100.92 102.688C98.7996 102.927 96.9882 102.416 95.486 101.156C95.8512 101.659 96.2384 102.107 96.6475 102.5C98.2261 104.021 100.184 104.68 102.522 104.475C102.575 104.47 102.655 104.463 102.761 104.454C105.833 104.078 109.587 102.01 114.023 98.249ZM171.861 72.8715C172.804 72.6284 173.673 72.7665 174.467 73.2859C175.316 73.8006 175.837 74.5581 176.031 75.5582C176.221 76.5053 176.057 77.3763 175.537 78.1713C171.863 83.9 167.257 88.7733 161.719 92.7912C156.23 96.7514 150.966 99.0054 145.928 99.5532C145.822 99.5625 145.689 99.5741 145.53 99.5881C141.12 99.9739 137.599 98.89 134.966 96.3364C135.278 96.8445 135.639 97.2947 136.048 97.6872C138.863 100.493 142.635 101.688 147.364 101.275C147.523 101.261 147.656 101.249 147.762 101.24C151.105 100.894 154.592 99.7589 158.225 97.8349C161.911 95.9063 165.413 93.4049 168.731 90.3307L170.724 90.1564C167.172 93.6258 163.377 96.4473 159.338 98.6209C155.352 100.79 151.555 102.059 147.946 102.428C147.787 102.442 147.628 102.456 147.468 102.47C142.368 102.916 138.265 101.616 135.161 98.5679C132.52 95.908 131.491 92.411 132.075 88.0769C132.252 85.8129 132.953 83.4227 134.178 80.9063C135.404 78.39 137.015 76.0004 139.012 73.7378C141.004 71.422 143.22 69.515 145.659 68.0167C148.993 65.7441 152.387 64.4567 155.841 64.1546C157.01 64.0523 158.137 64.0875 159.223 64.2602C160.951 64.4303 162.424 65.0509 163.642 66.1222C164.908 67.1356 165.8 68.4496 166.316 70.0641C166.984 72.2006 166.892 74.5108 166.039 76.9946C165.185 79.4785 163.724 81.7478 161.655 83.8026C164.731 81.0173 167.373 77.8683 169.582 74.3558C170.155 73.5562 170.914 73.0614 171.861 72.8715ZM146.773 91.77C149.319 91.4937 152.145 90.4434 155.251 88.6191C156.112 88.0619 156.971 87.4782 157.828 86.8678C154.643 89.0202 151.51 90.2312 148.429 90.5008C147.738 90.5613 147.098 90.5905 146.509 90.5885C145.162 90.4922 143.905 90.2006 142.739 89.7138C142.688 90.3606 142.723 90.7591 142.843 90.9092C143.55 91.6504 144.86 91.9373 146.773 91.77ZM156.126 71.9996C154.079 71.8575 151.887 72.5043 149.55 73.9401C147.261 75.3182 145.2 77.1581 143.367 79.46C143.762 79.6931 144.107 79.9574 144.4 80.2529C144.525 80.4562 144.802 80.5658 145.232 80.5817C145.445 80.5631 145.684 80.5422 145.949 80.5189L146.465 79.992C149.384 76.6315 152.391 74.6016 155.489 73.9023C155.907 73.1698 156.119 72.5356 156.126 71.9996ZM148.517 79.5716C149.3 79.3425 150.151 78.9736 151.07 78.4649C151.825 77.917 152.549 77.3183 153.242 76.6687C153.639 76.3128 154.007 75.9326 154.346 75.5281C152.383 76.3423 150.44 77.6901 148.517 79.5716ZM139.735 91.1811C140.495 91.9177 141.578 92.3583 142.983 92.5031C142.539 92.3278 142.17 92.0924 141.877 91.7968C141.352 91.3073 141.286 90.2424 141.678 88.602L141.847 87.7841L142.606 88.1996C143.787 88.8458 145.104 89.2124 146.557 89.2994C147.151 89.3545 147.74 89.3565 148.324 89.3054C152.362 88.9521 156.314 87.0003 160.179 83.4499C161.617 82.1462 162.781 80.7596 163.67 79.2898C164.554 77.767 165.117 76.2455 165.358 74.7253C165.595 73.152 165.523 71.7128 165.141 70.4078C164.845 69.47 164.399 68.6525 163.802 67.9552C163.206 67.2578 162.515 66.7026 161.729 66.2895C160.944 65.8764 160.063 65.6054 159.088 65.4766C160.921 66.2264 162.135 67.5656 162.732 69.4943C163.378 71.3651 163.265 73.4362 162.393 75.7075C161.521 77.9788 160.067 80.0333 158.033 81.8709C155.95 83.7663 153.724 85.246 151.355 86.3099C149.034 87.316 146.85 87.748 144.803 87.6059C142.809 87.4591 141.145 86.8016 139.812 85.6333C138.822 88.3968 138.797 90.246 139.735 91.1811ZM212.73 69.2156C213.677 69.0257 214.551 69.2169 215.35 69.7894C216.198 70.3041 216.717 71.035 216.907 71.9821C217.097 72.9291 216.935 73.8267 216.42 74.6748C212.3 80.8173 206.922 86.0525 200.288 90.3806C193.648 94.6555 188.955 96.0833 186.207 94.6641C186.043 94.6249 185.875 94.5326 185.701 94.3871C186.152 95.2578 186.797 95.8974 187.636 96.3058C190.663 97.8612 195.595 96.4125 202.433 91.9596C204.766 90.4706 207.024 88.7472 209.208 86.7894L211.201 86.6151C208.629 89.0352 205.925 91.1723 203.089 93.0265C198.274 96.1246 194.299 97.8108 191.164 98.0851C189.624 98.2199 188.267 98.0173 187.096 97.4773C185.582 96.6996 184.618 95.4723 184.204 93.7954C183.961 92.853 183.906 91.9209 184.04 90.999C184.106 89.9225 184.598 88.5142 185.517 86.7742C186.489 85.0296 188.37 82.0543 191.161 77.8484C191.156 77.7952 191.202 77.7109 191.299 77.5953L191.365 77.429C187.792 80.0436 184.158 83.1723 180.461 86.815C176.818 90.4531 173.483 94.2515 170.456 98.2103C169.501 99.5253 168.226 100.253 166.632 100.392C165.41 100.499 164.259 100.198 163.18 99.4894C162.27 98.8731 161.611 98.0741 161.204 97.0925C160.792 96.0578 160.699 94.9952 160.925 93.9047C160.922 93.2625 161.059 92.6883 161.336 92.1823C165.47 84.9679 171.5 75.2587 179.427 63.0548C179.805 62.4863 180.277 62.0702 180.843 61.8065C181.695 61.1431 182.653 60.7649 183.715 60.6719C184.937 60.565 186.061 60.8682 187.087 61.5815C188.619 62.5717 189.438 63.9724 189.543 65.7835C194.067 63.032 198.155 61.4162 201.807 60.9361C203.073 60.7183 204.263 60.8551 205.376 61.3466C206.49 61.8381 207.359 62.5918 207.983 63.608C209.227 65.5871 209.231 68.0762 207.994 71.0754L203.542 78.9334C206.26 76.34 208.592 73.6197 210.538 70.7726C211.052 69.9245 211.783 69.4055 212.73 69.2156ZM188.244 66.5395C188.472 64.86 187.875 63.547 186.454 62.6006C185.77 62.1251 185 61.8979 184.146 61.9192C184.256 61.963 184.314 62.0115 184.319 62.0646C185.167 62.5793 185.686 63.3102 185.876 64.2572C186.066 65.2043 185.901 66.0753 185.382 66.8703C184.959 67.5497 184.323 68.5422 183.474 69.8479C185.081 68.6365 186.671 67.5337 188.244 66.5395ZM169.51 97.4901C172.915 92.9628 176.718 88.6951 180.918 84.6871C185.166 80.6214 189.238 77.2938 193.134 74.7044C194.27 72.9989 195.214 71.5511 195.966 70.361C191.493 72.4656 186.577 75.9473 181.22 80.806C175.912 85.6069 171.242 90.6731 167.212 96.0047C166.591 96.8621 165.776 97.335 164.766 97.4233C163.916 97.4977 163.149 97.2971 162.465 96.8216C162.791 97.489 163.267 98.0363 163.893 98.4633C164.688 98.9827 165.564 99.2005 166.52 99.1168C167.742 99.0099 168.739 98.4677 169.51 97.4901ZM197.043 81.7505C195.907 83.456 195.034 84.7906 194.422 85.7542C196.357 84.6212 198.301 83.2734 200.252 81.7107C203.751 76.4256 205.988 72.6162 206.961 70.2825C207.988 67.9441 207.973 65.9377 206.916 64.2635C206.047 62.894 204.78 62.1751 203.114 62.1067C203.784 62.4228 204.306 62.8857 204.681 63.4954C205.617 65.0196 205.546 66.9532 204.466 69.2962C203.434 71.5815 200.96 75.7329 197.043 81.7505ZM245.937 66.3907C246.879 66.1477 247.75 66.3124 248.55 66.8849C249.345 67.4042 249.837 68.1374 250.027 69.0845C250.27 70.0269 250.132 70.8956 249.613 71.6905C248.151 73.9598 246.391 76.175 244.332 78.3361C242.325 80.4925 240.119 82.5058 237.713 84.3759C235.355 86.1883 232.897 87.7686 230.338 89.1167C225.791 91.6025 221.604 93.0127 217.779 93.3474C214.272 93.6542 211.302 93.0574 208.869 91.5571C208.585 91.3679 208.298 91.152 208.009 90.9096C208.629 91.8726 209.392 92.6357 210.297 93.1989C212.842 94.743 215.947 95.3547 219.613 95.034C223.491 94.6947 227.757 93.2775 232.411 90.7824C235.836 88.9302 239.142 86.6333 242.328 83.8918L244.321 83.7175C240.751 86.9744 236.973 89.6873 232.987 91.8563C228.183 94.4716 223.762 95.9558 219.724 96.3091C215.793 96.6531 212.439 95.956 209.664 94.218C209.153 93.8879 208.664 93.5024 208.198 93.0614C207.731 92.6204 207.219 91.9692 206.661 91.1078C206.1 90.1933 205.77 89.1782 205.672 88.0625C205.521 86.9514 205.509 85.5873 205.635 83.9701C205.722 82.517 206.068 80.9609 206.673 79.3019C207.78 76.0464 209.631 72.7258 212.225 69.3401C214.869 65.8966 217.765 63.2072 220.915 61.272C224.051 59.1774 227.16 57.9953 230.242 57.7257C231.304 57.6327 232.323 57.6506 233.298 57.7795C235.948 58.083 237.716 59.3203 238.602 61.4914C238.803 61.9556 238.924 62.4268 238.966 62.905C239.061 63.3785 239.098 63.8035 239.078 64.1801C239.057 64.5567 238.986 64.9644 238.864 65.4034C238.741 65.8424 238.612 66.2017 238.476 66.4813C238.34 66.7609 238.129 67.1006 237.843 67.5004C237.609 67.8955 237.422 68.2064 237.282 68.4328C237.136 68.6062 236.945 68.8638 236.707 69.2059C234.878 71.5608 233.947 73.4626 233.913 74.911C233.87 76.2532 233.383 77.4201 232.453 78.4116C231.523 79.4032 230.367 79.9594 228.985 80.0802C228.773 80.0988 228.558 80.0908 228.341 80.0563C226.839 80.0271 225.586 79.4675 224.58 78.3777C223.575 77.2878 223.086 75.9921 223.116 74.4905C223.136 74.114 223.183 73.7351 223.257 73.3539C222.08 74.5812 220.967 75.9366 219.919 77.4203C217.832 80.4939 216.621 83.1696 216.285 85.4476C216.941 85.6043 217.747 85.6409 218.703 85.5572C221.838 85.2829 225.515 83.8637 229.734 81.2996C235.623 77.6257 240.264 73.1508 243.657 67.875C244.23 67.0754 244.99 66.5807 245.937 66.3907ZM237.521 61.9875C236.778 60.2321 235.326 59.2349 233.164 58.9958L233.084 59.0028C234.034 59.4551 234.71 60.1455 235.112 61.0739C235.309 61.485 235.423 61.8765 235.456 62.2484C235.488 62.6203 235.468 62.9969 235.394 63.3781C235.316 63.7062 235.235 64.0077 235.152 64.2827C235.069 64.5576 234.911 64.8927 234.678 65.2878C234.44 65.6298 234.251 65.9141 234.11 66.1405C233.964 66.3139 233.749 66.6005 233.462 67.0003C231.391 69.6441 230.329 71.8786 230.274 73.7036C230.252 74.6692 229.87 75.5057 229.129 76.213C228.436 76.8625 227.607 77.176 226.641 77.1534C225.994 77.1029 225.387 76.8884 224.818 76.5098C225.537 77.9995 226.73 78.7785 228.396 78.8469C228.555 78.833 228.714 78.819 228.874 78.8051C229.936 78.7121 230.809 78.2878 231.493 77.532C232.229 76.7716 232.633 75.8797 232.704 74.8562C232.741 74.05 232.91 73.2321 233.212 72.4026C233.567 71.5685 233.913 70.9226 234.247 70.465C234.577 69.9543 235.055 69.2968 235.681 68.4926C235.967 68.0928 236.181 67.7796 236.321 67.5532C236.515 67.3221 236.729 67.0089 236.962 66.6138C237.195 66.2186 237.353 65.8836 237.436 65.6086C237.568 65.2759 237.67 64.9189 237.744 64.5377C237.866 64.0987 237.882 63.669 237.792 63.2486C237.755 62.8236 237.664 62.4032 237.521 61.9875ZM216.602 75.3013C214.99 77.6909 213.868 79.8503 213.233 81.7796C212.652 83.7042 212.469 84.9783 212.684 85.6019C213.306 85.9759 214.075 86.203 214.993 86.2834L214.951 85.8052C215.114 83.3818 216.428 80.3491 218.893 76.707C220.319 74.6549 221.849 72.8614 223.481 71.3266C223.781 69.8549 224.271 68.4201 224.952 67.0221C221.947 68.784 219.164 71.5437 216.602 75.3013ZM265.411 88.7786C264.561 88.853 263.754 88.8165 262.992 88.669C262.283 88.5169 261.641 88.225 261.068 87.7934C261.889 89.2206 263.089 90.0793 264.667 90.3696C265.429 90.517 266.262 90.5512 267.165 90.4722C269.45 90.2723 272.046 89.3492 274.953 87.7029C277.856 86.0034 280.825 83.5219 283.858 80.2584L285.691 80.098C282.376 83.8145 279.114 86.6161 275.907 88.5028C272.704 90.4427 269.827 91.5242 267.277 91.7473C266.267 91.8356 265.326 91.7842 264.452 91.5929C262.054 91.1067 260.407 89.725 259.512 87.4477C259.292 86.7709 259.152 86.0872 259.092 85.3965C256.254 87.8398 253.846 89.6834 251.866 90.9273C249.887 92.1712 248.074 92.8652 246.427 93.0093C244.727 93.158 243.188 92.7037 241.811 91.6464C238.941 89.4348 237.813 86.0268 238.427 81.4224C238.528 80.1287 238.81 78.7656 239.274 77.3331C239.894 75.2444 240.811 73.1833 242.025 71.1497C243.235 69.0631 244.721 67.086 246.485 65.2184C248.298 63.2932 250.24 61.6242 252.311 60.2116C256.953 56.9681 261.93 55.1139 267.243 54.6491C267.615 54.6165 267.987 54.584 268.359 54.5514C270.276 54.4372 271.935 55.0416 273.336 56.3646C273.384 56.3068 273.459 56.2467 273.561 56.1843C273.76 56.0063 273.963 55.8814 274.171 55.8097C275.023 55.1462 275.98 54.768 277.043 54.6751C278.69 54.531 280.1 55.05 281.274 56.2322C282.213 57.1673 282.716 58.3278 282.784 59.7139C282.9 61.0421 282.551 62.2505 281.736 63.339C278.268 67.7647 275.232 72.5275 272.626 77.6273C276.418 74.4581 280.061 70.2044 283.556 64.8662C284.07 64.0181 284.801 63.4991 285.748 63.3092C286.695 63.1193 287.566 63.284 288.361 63.8033C289.209 64.318 289.728 65.0489 289.918 65.996C290.108 66.943 289.946 67.8406 289.431 68.6887C285.378 74.9859 281.173 79.8509 276.815 83.2838C272.506 86.6588 268.705 88.4904 265.411 88.7786ZM247.354 76.064C246.115 78.421 245.465 80.4854 245.406 82.2573C246.268 81.7001 247.325 80.9384 248.579 79.9721C248.881 79.1426 249.237 78.3085 249.645 77.4697C251.117 74.7175 253.193 72.1268 255.871 69.6974C258.545 67.215 261.583 65.5304 264.986 64.6438C265.034 64.5861 265.083 64.5283 265.131 64.4705C265.18 64.4127 265.228 64.355 265.277 64.2972C265.325 64.2394 265.376 64.2082 265.429 64.2035C265.218 63.633 265.116 63.0798 265.123 62.5439C261.21 63.1004 257.682 64.6939 254.539 67.3245C251.45 69.9504 249.055 72.8636 247.354 76.064ZM254.1 75.1526C256.58 72.9012 259.542 70.0455 262.987 66.5854C260.299 67.6772 257.872 69.3083 255.706 71.4786C253.589 73.5912 251.959 75.7682 250.817 78.0096C250.768 78.0674 250.72 78.1252 250.671 78.183C251.77 77.2837 252.913 76.2736 254.1 75.1526ZM280.388 57.1128C279.57 56.3278 278.598 55.931 277.473 55.9223C277.753 56.0585 278.008 56.2235 278.239 56.4174C278.831 57.0616 279.14 57.8377 279.166 58.7455C279.24 59.5956 279.015 60.3916 278.491 61.1334C275.848 64.5769 273.409 68.2166 271.175 72.0526C268.994 75.8839 267.499 78.9861 266.689 81.359C267.825 80.8848 269.076 80.1865 270.441 79.264C273.097 73.5174 276.544 67.9424 280.782 62.5391C281.408 61.7348 281.677 60.8279 281.588 59.8185C281.548 58.7512 281.148 57.8493 280.388 57.1128ZM272.363 57.1725C271.433 56.3436 270.322 55.8787 269.028 55.7778C269.587 56.0501 270.074 56.409 270.488 56.8547C270.839 57.1987 271.144 57.6271 271.403 58.1398C271.8 57.7838 272.12 57.4614 272.363 57.1725ZM246.323 91.8138C247.917 91.6744 249.701 90.9561 251.675 89.6591C253.698 88.3043 256.199 86.292 259.178 83.6223C259.128 82.4488 259.38 81.0348 259.931 79.3805C258.938 80.2704 258.022 81.1268 257.184 81.9496C254.201 84.5663 251.698 86.552 249.675 87.9068C247.7 89.2038 245.969 89.9174 244.482 90.0476C243.26 90.1545 242.162 89.849 241.189 89.131C241.185 89.0779 241.096 88.9786 240.922 88.8332C241.359 89.5444 241.922 90.1644 242.611 90.6931C243.704 91.5611 244.941 91.9347 246.323 91.8138Z" fill="#7291A0"/>
</svg>
