<svg width="261" height="87" viewBox="0 0 261 87" fill="none" xmlns="http://www.w3.org/2000/svg">
<path d="M21.9088 37.3906L40.5123 31.1895V40.4912L12.6071 49.793H21.9088L21.9088 87H3.3053L3.3053 3.28418L0.204712 0.183594H46.7135V9.48535H21.9088V37.3906ZM80.8199 21.8877H62.2164L71.5182 24.9883V77.7603H80.8199V21.8877ZM99.4235 18.7871V80.7988C99.4235 82.4938 98.514 83.9614 96.6949 85.2017C94.8759 86.4006 92.6849 87 90.1217 87H62.2164C59.6533 87 57.5862 86.3592 56.0153 85.0776C54.4443 83.7547 53.4108 82.3285 52.9147 80.7988V18.7871C52.9147 17.0921 53.8242 15.6452 55.6432 14.4463C57.4622 13.2061 59.6533 12.5859 62.2164 12.5859H90.1217C92.6849 12.5859 94.8759 13.2061 96.6949 14.4463C98.514 15.6452 99.4235 17.0921 99.4235 18.7871ZM124.228 87H105.625V15.6865L102.524 12.5859H142.832C145.395 12.5859 147.586 13.2061 149.405 14.4463C151.224 15.6452 152.133 17.0921 152.133 18.7871V87H133.53V21.8877H114.926L124.228 24.9883V87ZM192.441 87H173.838V21.8877H158.335V12.5859H207.944V21.8877H183.139L192.441 24.9883V87ZM242.05 21.8877H232.749V52.8936L242.05 49.793V21.8877ZM260.654 18.7871V87H242.05V59.0947L223.447 65.2959H232.749V87H214.145V15.6865L211.045 12.5859H251.352C253.915 12.5859 256.106 13.2061 257.925 14.4463C259.744 15.6452 260.654 17.0921 260.654 18.7871Z" fill="#7291A0"/>
</svg>
