<svg width="221" height="71" viewBox="0 0 221 71" fill="none" xmlns="http://www.w3.org/2000/svg">
<path d="M81.5 36.25C82.1904 36.25 82.75 35.6904 82.75 35C82.75 34.3096 82.1904 33.75 81.5 33.75V36.25ZM49.6161 34.1161C49.128 34.6043 49.128 35.3957 49.6161 35.8839L57.5711 43.8388C58.0592 44.327 58.8507 44.327 59.3388 43.8388C59.827 43.3507 59.827 42.5592 59.3388 42.0711L52.2678 35L59.3388 27.9289C59.827 27.4408 59.827 26.6493 59.3388 26.1612C58.8507 25.673 58.0592 25.673 57.5711 26.1612L49.6161 34.1161ZM81.5 33.75L50.5 33.75V36.25L81.5 36.25V33.75Z" fill="#B3762B"/>
<path d="M120.116 27.2L112.796 44H109.724L102.38 27.2H105.764L111.356 40.16L116.996 27.2H120.116ZM126.4 44.168C125.104 44.168 123.936 43.888 122.896 43.328C121.856 42.768 121.04 41.992 120.448 41C119.872 39.992 119.584 38.856 119.584 37.592C119.584 36.328 119.872 35.2 120.448 34.208C121.04 33.216 121.856 32.44 122.896 31.88C123.936 31.32 125.104 31.04 126.4 31.04C127.712 31.04 128.888 31.32 129.928 31.88C130.968 32.44 131.776 33.216 132.352 34.208C132.944 35.2 133.24 36.328 133.24 37.592C133.24 38.856 132.944 39.992 132.352 41C131.776 41.992 130.968 42.768 129.928 43.328C128.888 43.888 127.712 44.168 126.4 44.168ZM126.4 41.6C127.504 41.6 128.416 41.232 129.136 40.496C129.856 39.76 130.216 38.792 130.216 37.592C130.216 36.392 129.856 35.424 129.136 34.688C128.416 33.952 127.504 33.584 126.4 33.584C125.296 33.584 124.384 33.952 123.664 34.688C122.96 35.424 122.608 36.392 122.608 37.592C122.608 38.792 122.96 39.76 123.664 40.496C124.384 41.232 125.296 41.6 126.4 41.6ZM136.109 26.192H139.109V44H136.109V26.192ZM155.046 31.184L149.55 44H146.454L140.958 31.184H144.078L148.062 40.688L152.166 31.184H155.046ZM168.618 37.664C168.618 37.872 168.602 38.168 168.57 38.552H158.514C158.69 39.496 159.146 40.248 159.882 40.808C160.634 41.352 161.562 41.624 162.666 41.624C164.074 41.624 165.234 41.16 166.146 40.232L167.754 42.08C167.178 42.768 166.45 43.288 165.57 43.64C164.69 43.992 163.698 44.168 162.594 44.168C161.186 44.168 159.946 43.888 158.874 43.328C157.802 42.768 156.97 41.992 156.378 41C155.802 39.992 155.514 38.856 155.514 37.592C155.514 36.344 155.794 35.224 156.354 34.232C156.93 33.224 157.722 32.44 158.73 31.88C159.738 31.32 160.874 31.04 162.138 31.04C163.386 31.04 164.498 31.32 165.474 31.88C166.466 32.424 167.234 33.2 167.778 34.208C168.338 35.2 168.618 36.352 168.618 37.664ZM162.138 33.44C161.178 33.44 160.362 33.728 159.69 34.304C159.034 34.864 158.634 35.616 158.49 36.56H165.762C165.634 35.632 165.242 34.88 164.586 34.304C163.93 33.728 163.114 33.44 162.138 33.44ZM174.355 33.056C175.219 31.712 176.739 31.04 178.915 31.04V33.896C178.659 33.848 178.427 33.824 178.219 33.824C177.051 33.824 176.139 34.168 175.483 34.856C174.827 35.528 174.499 36.504 174.499 37.784V44H171.499V31.184H174.355V33.056Z" fill="white"/>
<rect x="1.5" y="1" width="218" height="69" rx="34" stroke="white" stroke-width="2"/>
</svg>
