<svg width="50" height="50" viewBox="0 0 50 50" fill="none" xmlns="http://www.w3.org/2000/svg">
<path fill-rule="evenodd" clip-rule="evenodd" d="M37.2929 10.7929C37.6834 10.4024 38.3166 10.4024 38.7071 10.7929C39.0976 11.1834 39.0976 11.8166 38.7071 12.2071L26.6642 24.25L38.7071 36.2929C39.0976 36.6834 39.0976 37.3166 38.7071 37.7071C38.3166 38.0976 37.6834 38.0976 37.2929 37.7071L25.25 25.6642L13.2071 37.7071C12.8166 38.0976 12.1834 38.0976 11.7929 37.7071C11.4024 37.3166 11.4024 36.6834 11.7929 36.2929L23.8358 24.25L11.7929 12.2071C11.4024 11.8166 11.4024 11.1834 11.7929 10.7929C12.1834 10.4024 12.8166 10.4024 13.2071 10.7929L25.25 22.8358L37.2929 10.7929Z" fill="white"/>
</svg>
