<svg width="86" height="86" viewBox="0 0 86 86" fill="none" xmlns="http://www.w3.org/2000/svg">
<path id="Icon/Search" d="M83 83L63.698 63.698M63.698 63.698C66.9997 60.3963 69.6187 56.4766 71.4056 52.1628C73.1924 47.8489 74.1121 43.2254 74.1121 38.5561C74.1121 33.8868 73.1924 29.2632 71.4056 24.9493C69.6187 20.6355 66.9997 16.7158 63.698 13.4141C60.3963 10.1124 56.4766 7.4934 52.1628 5.70654C47.8489 3.91968 43.2254 3 38.5561 3C33.8868 3 29.2632 3.91968 24.9493 5.70654C20.6355 7.4934 16.7158 10.1124 13.4141 13.4141C6.74607 20.0822 3 29.126 3 38.5561C3 47.9861 6.74607 57.0299 13.4141 63.698C20.0822 70.3661 29.126 74.1121 38.5561 74.1121C47.9861 74.1121 57.0299 70.3661 63.698 63.698Z" stroke="#B3762B" stroke-width="5" stroke-linecap="round" stroke-linejoin="round"/>
</svg>
