<svg width="50" height="50" viewBox="0 0 50 50" fill="none" xmlns="http://www.w3.org/2000/svg">
<g id="Icons">
<path id="Icon/Search" d="M38 37L31.9681 30.9681M31.9681 30.9681C32.9999 29.9363 33.8184 28.7115 34.3767 27.3634C34.9351 26.0153 35.2225 24.5704 35.2225 23.1113C35.2225 21.6521 34.9351 20.2073 34.3767 18.8592C33.8184 17.5111 32.9999 16.2862 31.9681 15.2544C30.9363 14.2226 29.7115 13.4042 28.3634 12.8458C27.0153 12.2874 25.5704 12 24.1113 12C22.6521 12 21.2073 12.2874 19.8592 12.8458C18.5111 13.4042 17.2862 14.2226 16.2544 15.2544C14.1706 17.3382 13 20.1644 13 23.1113C13 26.0582 14.1706 28.8844 16.2544 30.9681C18.3382 33.0519 21.1644 34.2225 24.1113 34.2225C27.0582 34.2225 29.8844 33.0519 31.9681 30.9681Z" stroke="#171717" stroke-width="2" stroke-linecap="round" stroke-linejoin="round"/>
</g>
</svg>
